<?xml version="1.0" encoding="UTF-8" standalone="no"?>
<!-- Created with Inkscape (http://www.inkscape.org/) -->

<svg
   xmlns:dc="http://purl.org/dc/elements/1.1/"
   xmlns:cc="http://creativecommons.org/ns#"
   xmlns:rdf="http://www.w3.org/1999/02/22-rdf-syntax-ns#"
   xmlns:svg="http://www.w3.org/2000/svg"
   xmlns="http://www.w3.org/2000/svg"
   xmlns:sodipodi="http://sodipodi.sourceforge.net/DTD/sodipodi-0.dtd"
   xmlns:inkscape="http://www.inkscape.org/namespaces/inkscape"
   width="297mm"
   height="210mm"
   viewBox="0 0 1052.3622 744.09448"
   id="svg2"
   version="1.1"
   inkscape:version="0.48.5 r10040"
   sodipodi:docname="Galeria.svg">
  <defs
     id="defs4" />
  <sodipodi:namedview
     id="base"
     pagecolor="#ffffff"
     bordercolor="#666666"
     borderopacity="1.0"
     inkscape:pageopacity="0.0"
     inkscape:pageshadow="2"
     inkscape:zoom="0.35"
     inkscape:cx="375"
     inkscape:cy="520"
     inkscape:document-units="px"
     inkscape:current-layer="layer1"
     showgrid="false"
     inkscape:window-width="1366"
     inkscape:window-height="706"
     inkscape:window-x="-8"
     inkscape:window-y="-8"
     inkscape:window-maximized="1" />
  <metadata
     id="metadata7">
    <rdf:RDF>
      <cc:Work
         rdf:about="">
        <dc:format>image/svg+xml</dc:format>
        <dc:type
           rdf:resource="http://purl.org/dc/dcmitype/StillImage" />
        <dc:title />
      </cc:Work>
    </rdf:RDF>
  </metadata>
  <g
     inkscape:label="Capa 1"
     inkscape:groupmode="layer"
     id="layer1"
     transform="translate(0,-308.26772)">
    <rect
       style="opacity:1;fill:#ffffff;stroke:#000000;stroke-width:1.017856;stroke-opacity:1"
       id="rect3336"
       width="951.41064"
       height="574.26788"
       x="60.008926"
       y="443.79971" />
    <path
       style="fill:none;fill-rule:evenodd;stroke:#000000;stroke-width:1px;stroke-linecap:butt;stroke-linejoin:miter;stroke-opacity:1"
       d="m 88.571429,492.3622 c -4.761905,0 -9.52381,0 -14.285715,0 -0.952381,0 -2.183708,0.67344 -2.857143,0 -0.673435,-0.67343 0.673435,-2.18371 0,-2.85714 -1.428571,-1.42857 -7.142857,1.42857 -8.571428,0 -0.673435,-0.67344 0.673435,-2.18371 0,-2.85714 -0.09189,-0.0919 -7.878495,0 -8.571429,0 -6.700508,0 1.34687,0.67343 -5.714285,-2.85715 -0.851836,-0.42591 -2.005308,0.42592 -2.857143,0 -1.204677,-0.60233 -1.652466,-2.2548 -2.857143,-2.85714 -0.851836,-0.42592 -1.904762,0 -2.857143,0 -0.952381,0 -1.904762,0 -2.857143,0 -0.952381,0 -2.183708,-0.67343 -2.857143,0 -0.114975,0.11498 0,10.37933 0,11.42857 0,4.76191 0,9.52381 0,14.28572 0,0.95238 0,1.90476 0,2.85714 0,0.95238 -0.425917,2.00531 0,2.85714 0.602339,1.20468 2.254805,1.65247 2.857143,2.85715 0.425918,0.85183 -0.673435,2.1837 0,2.85714 1.505847,1.50584 3.693981,2.18371 5.714286,2.85714 1.807016,0.60234 4.367416,-1.34687 5.714286,0 0.673435,0.67344 -0.425918,2.00531 0,2.85714 1.765289,3.53058 2.75852,2.85715 5.714285,2.85715"
       id="path3338"
       inkscape:connector-curvature="0" />
    <path
       style="fill:none;fill-rule:evenodd;stroke:#000000;stroke-width:1px;stroke-linecap:butt;stroke-linejoin:miter;stroke-opacity:1"
       d="m 88.571429,609.50506 c -18.35538,4.58884 -5.280224,3.95421 -17.142858,0 -3.546918,-1.18231 -3.11298,2.34547 -5.714285,-2.85714 -0.425918,-0.85184 0.673435,-2.18371 0,-2.85715 -1.940932,-1.94093 -5.68217,2.92138 -8.571429,-2.85714 -0.425918,-0.85183 0,-1.90476 0,-2.85714 0,-3.48766 1.108689,-6.58851 -2.857143,-8.57143 -0.751261,-0.37563 -9.934513,0 -11.428571,0 -4.761905,0 -9.52381,0 -14.285714,0 -1.904762,0 -3.90727,-0.60234 -5.714286,0 -1.904762,0.95238 -3.809524,1.90476 -5.714286,2.85714 0,0.95238 0.673435,2.18371 0,2.85715 -0.673435,0.67343 -2.005307,-0.42592 -2.857143,0 -0.758602,0.3793 -8.1921272,7.81282 -8.5714283,8.57142 -0.1951047,0.39021 -0.1951047,16.75265 0,17.14286 1.9864285,3.97286 7.3948033,5.71429 11.4285713,5.71429 0.952381,0 1.904762,0 2.857143,0 0.952381,0 2.005307,-0.42592 2.857143,0 2.409354,1.20467 3.158779,4.86245 5.714286,5.71428 1.807015,0.60234 3.809523,0 5.714285,0 0.952381,0 2.005308,-0.42592 2.857143,0 1.204677,0.60234 2.254804,1.65247 2.857143,2.85715 0.425918,0.85183 0.673435,3.53057 0,2.85714 -1.505847,-1.50585 -2.857143,-7.84388 -2.857143,-5.71429 0.952381,3.80953 1.904762,7.61905 2.857143,11.42857 0.952381,0 2.183708,-0.67343 2.857143,0 1.505846,1.50585 1.67586,3.94236 2.857143,5.71429 0.747109,1.12066 1.904762,1.90476 2.857143,2.85714 2.857142,2.85715 5.714285,5.71429 8.571428,8.57143"
       id="path3340"
       inkscape:connector-curvature="0" />
    <path
       style="fill:none;fill-rule:evenodd;stroke:#000000;stroke-width:1px;stroke-linecap:butt;stroke-linejoin:miter;stroke-opacity:1"
       d="m 85.714286,720.93363 c -6.210518,-2.81091 -13.675445,2.10819 -20,0 -0.903508,-0.30117 0.673435,-2.18371 0,-2.85714 -0.673435,-0.67344 -1.953635,0.30117 -2.857143,0 -2.020305,-0.67344 -3.942361,-1.67586 -5.714286,-2.85714 -2.241327,-1.49422 -3.404422,-4.32837 -5.714286,-5.71429 C 47.776357,707.31373 43.652214,705.9821 40,703.79077 c -2.309863,-1.38591 -3.304931,-4.5096 -5.714286,-5.71428 -0.738716,-0.36936 -15.117708,0 -17.142857,0 -1.049247,0 -11.3135961,-0.11498 -11.4285713,0 -0.673435,0.67343 0,1.90476 0,2.85714 0,2.85714 -0.9035079,5.86091 0,8.57143 0.8518354,2.55551 4.5096083,3.30493 5.7142853,5.71429 0.425918,0.85183 -0.673435,2.1837 0,2.85714 1.428572,1.42857 7.142858,-1.42857 8.571429,0 0.673435,0.67343 -0.425918,2.00531 0,2.85714 1.266197,2.5324 6.837495,5.97053 8.571429,8.57143 1.181283,1.77192 1.351296,4.20844 2.857142,5.71429 0.673435,0.67343 2.183708,-0.67344 2.857143,0 1.34687,1.34687 -0.851835,4.01061 0,5.71428 0.602339,1.20468 2.254805,1.65247 2.857143,2.85714 3.518502,7.03701 -8.293527,-2.57924 2.857143,8.57143 0.673435,0.67344 2.183708,-0.67343 2.857143,0 0.673435,0.67344 -0.425918,2.00531 0,2.85715 0.602338,1.20467 1.904762,1.90476 2.857143,2.85714 0.952381,0.95238 1.652465,2.2548 2.857143,2.85714 0.851835,0.42592 2.183707,-0.67343 2.857142,0 0.673435,0.67344 -0.425917,2.00531 0,2.85714 0.602339,1.20468 1.904762,1.90477 2.857143,2.85715 7.220133,7.22013 3.304932,4.50961 11.428572,8.57143"
       id="path3342"
       inkscape:connector-curvature="0" />
    <path
       style="fill:none;fill-rule:evenodd;stroke:#000000;stroke-width:1px;stroke-linecap:butt;stroke-linejoin:miter;stroke-opacity:1"
       d="m 54.285714,878.07649 c 0.952381,0.95238 1.904762,3.80952 2.857143,2.85714 0.952381,-0.95238 -1.904762,-1.90476 -2.857143,-2.85714 -0.952381,-0.95238 -2.254804,-1.65247 -2.857143,-2.85714 -0.425917,-0.85184 0.851836,-2.43123 0,-2.85715 -1.70367,-0.85183 -3.809523,0 -5.714285,0 -0.952381,0 2.857143,0.95238 2.857143,0 0,-0.95238 -2.005308,0.42592 -2.857143,0 -11.890744,-5.94537 3.054387,0.19725 -2.857143,-5.71428 -0.673435,-0.67344 -1.953635,0.30117 -2.857143,0 -2.020305,-0.67344 -4.208439,-1.3513 -5.714286,-2.85715 -0.673435,-0.67343 0.673435,-2.1837 0,-2.85714 -0.673435,-0.67343 -2.005307,0.42592 -2.857143,0 -0.758602,-0.3793 -8.192127,-7.81283 -8.571428,-8.57143 -0.425918,-0.85183 0.673435,-2.18371 0,-2.85714 -0.673435,-0.67344 -2.183708,0.67343 -2.857143,0 -0.673435,-0.67344 0.425918,-2.00531 0,-2.85714 -1.204677,-2.40936 -4.509609,-3.30493 -5.714286,-5.71429 -0.851835,-1.70367 0.851836,-4.01061 0,-5.71428 -1.714285,-3.42858 -6.8571426,-5.14286 -8.5714283,-8.57143 -0.4343371,-0.86868 0,-9.45565 0,-11.42857 0,-0.95239 0,-1.90477 0,-2.85715 0,-0.95238 -0.673435,-2.18371 0,-2.85714 0.1149752,-0.11498 10.3793243,0 11.4285713,0 5.714286,0 11.428572,0 17.142857,0 0.952381,0 2.183708,-0.67344 2.857143,0 0.673435,0.67343 -0.673435,2.18371 0,2.85714 0.673435,0.67344 2.005308,-0.42592 2.857143,0 1.204677,0.60234 1.904762,1.90476 2.857143,2.85715 0.952381,0.95238 2.254804,1.65246 2.857143,2.85714 0.425917,0.85183 -0.673435,2.18371 0,2.85714 0.673435,0.67344 2.064714,-0.52828 2.857143,0 2.241327,1.49422 3.809523,3.80952 5.714285,5.71429 0,0.95238 -0.673435,2.1837 0,2.85714 0.673435,0.67343 2.005308,-0.42592 2.857143,0 1.204677,0.60234 1.904762,1.90476 2.857143,2.85714 3.809524,0.95238 7.619048,1.90476 11.428571,2.85715 2.290554,12.04253 9.942189,0.68538 14.285715,2.85714 7.061155,3.53058 -0.986223,2.85714 5.714285,2.85714"
       id="path3344"
       inkscape:connector-curvature="0" />
    <path
       style="fill:none;fill-rule:evenodd;stroke:#000000;stroke-width:1px;stroke-linecap:butt;stroke-linejoin:miter;stroke-opacity:1"
       d="m 80,935.21935 c -5.343879,-0.3258 -15.192735,1.95012 -20,-2.85715 -0.673435,-0.67343 0.673435,-2.18371 0,-2.85714 -0.673435,-0.67344 -2.005307,0.42592 -2.857143,0 -1.204677,-0.60234 -1.904762,-1.90476 -2.857143,-2.85714 -1.904762,0 -3.90727,0.60234 -5.714285,0 -1.277754,-0.42592 -1.652466,-2.25481 -2.857143,-2.85715 -0.851836,-0.42591 -2.005308,0.42592 -2.857143,0 -1.204677,-0.60233 -1.652466,-2.2548 -2.857143,-2.85714 -0.851835,-0.42592 -2.005307,0.42592 -2.857143,0 -1.204677,-0.60234 -1.652466,-2.2548 -2.857143,-2.85714 -0.851835,-0.42592 -1.904762,0 -2.857143,0 -0.952381,0 -1.904761,0 -2.857142,0 -0.692934,0 -8.479544,-0.0919 -8.571429,0 -0.129491,0.12949 0,12.93858 0,14.28571 0,2.39429 -0.607165,13.07139 0,14.28572 0.425918,0.85183 2.183708,-0.67344 2.857143,0 0.673435,0.67343 0,1.90476 0,2.85714 0,1.28674 -0.434763,7.7019 0,8.57143 0.602338,1.20468 1.904762,1.90476 2.857143,2.85714 0.952381,0.95238 1.652465,2.25481 2.857143,2.85714 0.851835,0.42592 2.005307,-0.42591 2.857142,0 1.204678,0.60234 1.652466,2.25481 2.857143,2.85715 0.851836,0.42591 2.005308,-0.42592 2.857143,0 13.076021,6.53801 -12.124047,-1.18421 8.571429,5.71428 1.807016,0.60234 4.010615,-0.85183 5.714285,0 1.204678,0.60234 1.904762,1.90476 2.857143,2.85715 0.952381,0.95238 1.904762,1.90476 2.857143,2.85714"
       id="path3346"
       inkscape:connector-curvature="0" />
    <rect
       style="opacity:1;fill:#ffffff;stroke:#000000;stroke-opacity:1"
       id="rect3348"
       width="945.71436"
       height="105.71426"
       x="62.85714"
       y="340.93362" />
    <rect
       style="opacity:1;fill:#ffffff;stroke:#000000;stroke-opacity:1"
       id="rect3350"
       width="242.85715"
       height="85.714287"
       x="71.428574"
       y="352.36221" />
    <rect
       style="opacity:1;fill:#ffffff;stroke:#000000;stroke-opacity:1"
       id="rect3352"
       width="231.42857"
       height="71.428574"
       x="340"
       y="355.21936" />
    <rect
       style="opacity:1;fill:#ffffff;stroke:#000000;stroke-opacity:1"
       id="rect3354"
       width="194.28572"
       height="74.285713"
       x="588.57141"
       y="355.21936" />
    <rect
       style="opacity:1;fill:#ffffff;stroke:#000000;stroke-opacity:1"
       id="rect3356"
       width="188.57143"
       height="71.428574"
       x="805.71429"
       y="355.21933" />
    <rect
       style="opacity:1;fill:#ffffff;stroke:#000000;stroke-opacity:1"
       id="rect3358"
       width="197.14285"
       height="162.85715"
       x="114.28571"
       y="480.93362" />
    <rect
       style="opacity:1;fill:#ffffff;stroke:#000000;stroke-opacity:1"
       id="rect3360"
       width="202.85715"
       height="171.42857"
       x="348.57144"
       y="480.93362" />
    <rect
       style="opacity:1;fill:#ffffff;stroke:#000000;stroke-opacity:1"
       id="rect3362"
       width="191.42857"
       height="185.71428"
       x="591.42859"
       y="483.79077" />
    <rect
       style="opacity:1;fill:#ffffff;stroke:#000000;stroke-opacity:1"
       id="rect3364"
       width="180"
       height="182.85715"
       x="805.71429"
       y="486.64792" />
    <rect
       style="opacity:1;fill:#ffffff;stroke:#000000;stroke-opacity:1"
       id="rect3366"
       width="185.71428"
       height="160"
       x="125.71428"
       y="669.50507" />
    <rect
       style="opacity:1;fill:#ffffff;stroke:#000000;stroke-opacity:1"
       id="rect3368"
       width="188.57143"
       height="157.14285"
       x="120"
       y="846.64789" />
    <rect
       style="opacity:1;fill:#ffffff;stroke:#000000;stroke-opacity:1"
       id="rect3370"
       width="205.71428"
       height="165.71428"
       x="342.85715"
       y="669.50507" />
    <rect
       style="opacity:1;fill:#ffffff;stroke:#000000;stroke-opacity:1"
       id="rect3372"
       width="202.85715"
       height="151.42857"
       x="342.85715"
       y="855.2193" />
    <rect
       style="opacity:1;fill:#ffffff;stroke:#000000;stroke-opacity:1"
       id="rect3374"
       width="197.14285"
       height="148.57143"
       x="585.71429"
       y="686.64789" />
    <rect
       style="opacity:1;fill:#ffffff;stroke:#000000;stroke-opacity:1"
       id="rect3376"
       width="205.71428"
       height="151.42857"
       x="580"
       y="852.36218" />
    <rect
       style="opacity:1;fill:#ffffff;stroke:#000000;stroke-opacity:1"
       id="rect3378"
       width="177.14285"
       height="142.85715"
       x="808.57141"
       y="689.50507" />
    <rect
       style="opacity:1;fill:#ffffff;stroke:#000000;stroke-opacity:1"
       id="rect3380"
       width="188.57143"
       height="154.28572"
       x="805.71429"
       y="852.36218" />
    <text
       xml:space="preserve"
       style="font-style:normal;font-weight:normal;font-size:40px;line-height:125%;font-family:Sans;letter-spacing:0px;word-spacing:0px;fill:#000000;fill-opacity:1;stroke:none;stroke-width:1px;stroke-linecap:butt;stroke-linejoin:miter;stroke-opacity:1"
       x="114.28571"
       y="398.07648"
       id="text3382"
       sodipodi:linespacing="125%"><tspan
         sodipodi:role="line"
         id="tspan3384"
         x="114.28571"
         y="398.07648">Index</tspan></text>
    <text
       xml:space="preserve"
       style="font-style:normal;font-weight:normal;font-size:40px;line-height:125%;font-family:Sans;letter-spacing:0px;word-spacing:0px;fill:#000000;fill-opacity:1;stroke:none;stroke-width:1px;stroke-linecap:butt;stroke-linejoin:miter;stroke-opacity:1"
       x="362.85715"
       y="398.07648"
       id="text3386"
       sodipodi:linespacing="125%"><tspan
         sodipodi:role="line"
         id="tspan3388"
         x="362.85715"
         y="398.07648">Ilustracion</tspan></text>
    <text
       xml:space="preserve"
       style="font-style:normal;font-weight:normal;font-size:40px;line-height:125%;font-family:Sans;letter-spacing:0px;word-spacing:0px;fill:#000000;fill-opacity:1;stroke:none;stroke-width:1px;stroke-linecap:butt;stroke-linejoin:miter;stroke-opacity:1"
       x="625.71429"
       y="403.79077"
       id="text3390"
       sodipodi:linespacing="125%"><tspan
         sodipodi:role="line"
         id="tspan3392"
         x="625.71429"
         y="403.79077">comic</tspan></text>
    <text
       xml:space="preserve"
       style="font-style:normal;font-weight:normal;font-size:40px;line-height:125%;font-family:Sans;letter-spacing:0px;word-spacing:0px;fill:#000000;fill-opacity:1;stroke:none;stroke-width:1px;stroke-linecap:butt;stroke-linejoin:miter;stroke-opacity:1"
       x="834.28571"
       y="392.36221"
       id="text3394"
       sodipodi:linespacing="125%"><tspan
         sodipodi:role="line"
         id="tspan3396"
         x="834.28571"
         y="392.36221">bocetos</tspan></text>
    <text
       xml:space="preserve"
       style="font-style:normal;font-weight:normal;font-size:40px;line-height:125%;font-family:Sans;letter-spacing:0px;word-spacing:0px;fill:#000000;fill-opacity:1;stroke:none;stroke-width:1px;stroke-linecap:butt;stroke-linejoin:miter;stroke-opacity:1"
       x="151.42857"
       y="575.2193"
       id="text3398"
       sodipodi:linespacing="125%"><tspan
         sodipodi:role="line"
         id="tspan3400"
         x="151.42857"
         y="575.2193">img1</tspan></text>
    <text
       xml:space="preserve"
       style="font-style:normal;font-weight:normal;font-size:40px;line-height:125%;font-family:Sans;letter-spacing:0px;word-spacing:0px;fill:#000000;fill-opacity:1;stroke:none;stroke-width:1px;stroke-linecap:butt;stroke-linejoin:miter;stroke-opacity:1"
       x="400"
       y="583.79077"
       id="text3402"
       sodipodi:linespacing="125%"><tspan
         sodipodi:role="line"
         id="tspan3404"
         x="400"
         y="583.79077">img2</tspan></text>
    <text
       xml:space="preserve"
       style="font-style:normal;font-weight:normal;font-size:40px;line-height:125%;font-family:Sans;letter-spacing:0px;word-spacing:0px;fill:#000000;fill-opacity:1;stroke:none;stroke-width:1px;stroke-linecap:butt;stroke-linejoin:miter;stroke-opacity:1"
       x="634.28571"
       y="572.36218"
       id="text3406"
       sodipodi:linespacing="125%"><tspan
         sodipodi:role="line"
         id="tspan3408"
         x="634.28571"
         y="572.36218">img3</tspan></text>
    <text
       xml:space="preserve"
       style="font-style:normal;font-weight:normal;font-size:40px;line-height:125%;font-family:Sans;letter-spacing:0px;word-spacing:0px;fill:#000000;fill-opacity:1;stroke:none;stroke-width:1px;stroke-linecap:butt;stroke-linejoin:miter;stroke-opacity:1"
       x="862.85712"
       y="578.07648"
       id="text3410"
       sodipodi:linespacing="125%"><tspan
         sodipodi:role="line"
         id="tspan3412"
         x="862.85712"
         y="578.07648">img4</tspan></text>
    <path
       sodipodi:type="star"
       style="fill:#ffffff;fill-rule:evenodd;stroke:#000000;stroke-width:1px;stroke-linecap:butt;stroke-linejoin:miter;stroke-opacity:1"
       id="path3073"
       sodipodi:sides="3"
       sodipodi:cx="108.57143"
       sodipodi:cy="366.95163"
       sodipodi:r1="52.450172"
       sodipodi:r2="26.225084"
       sodipodi:arg1="2.0831858"
       sodipodi:arg2="3.1303834"
       inkscape:flatsided="false"
       inkscape:rounded="0"
       inkscape:randomized="0"
       d="m 82.857139,412.66592 -0.509149,-45.42033 -0.509154,-45.42033 39.589734,22.26923 39.58973,22.26922 -39.08058,23.1511 z"
       transform="matrix(-0.99997396,-0.00721663,0.00721663,-0.99997396,195.35874,1087.1658)"
       inkscape:transform-center-x="-1.6846211"
       inkscape:transform-center-y="3.4873794" />
    <path
       sodipodi:type="star"
       style="fill:#ffffff;fill-rule:evenodd;stroke:#000000;stroke-width:1px;stroke-linecap:butt;stroke-linejoin:miter;stroke-opacity:1"
       id="path3073-1"
       sodipodi:sides="3"
       sodipodi:cx="108.57143"
       sodipodi:cy="366.95163"
       sodipodi:r1="52.450172"
       sodipodi:r2="26.225084"
       sodipodi:arg1="2.0831858"
       sodipodi:arg2="3.1303834"
       inkscape:flatsided="false"
       inkscape:rounded="0"
       inkscape:randomized="0"
       d="m 82.857139,412.66592 -0.509149,-45.42033 -0.509154,-45.42033 39.589734,22.26923 39.58973,22.26922 -39.08058,23.1511 z"
       transform="translate(907.14287,347.97376)"
       inkscape:transform-center-x="1.8747735"
       inkscape:transform-center-y="-3.1919218" />
  </g>
</svg>
